<svg width="159" height="36" viewBox="0 0 159 36" fill="none" xmlns="http://www.w3.org/2000/svg">
<path d="M0.015625 33.457C0.015625 33.2227 0.0481771 33.0208 0.113281 32.8516C0.217448 32.5781 0.393229 32.0247 0.640625 31.1914C0.901042 30.3581 1.21354 29.3294 1.57812 28.1055C1.95573 26.8685 2.3724 25.4753 2.82812 23.9258C3.29688 22.3763 3.78516 20.7422 4.29297 19.0234C4.8138 17.2917 5.34115 15.5208 5.875 13.7109C6.42188 11.901 6.95573 10.1172 7.47656 8.35938V8.37891C7.56771 8.01432 7.66536 7.64974 7.76953 7.28516C7.88672 6.90755 7.9974 6.5625 8.10156 6.25C8.21875 5.9375 8.32943 5.67057 8.43359 5.44922C8.55078 5.21484 8.64844 5.05859 8.72656 4.98047C8.9349 4.75911 9.21484 4.58333 9.56641 4.45312C9.91797 4.32292 10.263 4.25781 10.6016 4.25781C11.0573 4.25781 11.4349 4.34245 11.7344 4.51172C12.0339 4.66797 12.2878 4.90885 12.4961 5.23438C12.7174 5.54688 12.9062 5.9375 13.0625 6.40625C13.2318 6.875 13.4076 7.40885 13.5898 8.00781L18.4922 23.5742L18.7656 24.3945C19.4688 22.2331 20.0612 20.2995 20.543 18.5938C21.0378 16.888 21.4609 15.3711 21.8125 14.043C22.1771 12.7018 22.4896 11.5234 22.75 10.5078C23.0234 9.49219 23.2904 8.58073 23.5508 7.77344C23.681 7.36979 23.8112 6.95964 23.9414 6.54297C24.0716 6.1263 24.2344 5.7487 24.4297 5.41016C24.638 5.07161 24.8984 4.79818 25.2109 4.58984C25.5365 4.36849 25.9661 4.25781 26.5 4.25781C26.9557 4.25781 27.3529 4.32943 27.6914 4.47266C28.0299 4.60286 28.2969 4.90885 28.4922 5.39062C28.5833 5.61198 28.6745 5.83984 28.7656 6.07422C28.8568 6.30859 28.9674 6.60807 29.0977 6.97266C29.2409 7.32422 29.4102 7.77344 29.6055 8.32031C29.8008 8.86719 30.0417 9.5638 30.3281 10.4102C30.6146 11.2565 30.9531 12.2786 31.3438 13.4766C31.7344 14.6745 32.1966 16.1133 32.7305 17.793C33.2773 19.4596 33.8958 21.3997 34.5859 23.6133C35.2891 25.8138 36.0833 28.3333 36.9688 31.1719C37.125 31.5885 37.2487 31.9466 37.3398 32.2461C37.444 32.5456 37.5091 32.8255 37.5352 33.0859C37.5612 33.4245 37.5417 33.7435 37.4766 34.043C37.4245 34.3424 37.3203 34.6094 37.1641 34.8438C37.0078 35.0651 36.793 35.2409 36.5195 35.3711C36.2461 35.5013 35.9076 35.5664 35.5039 35.5664C34.9831 35.5664 34.5534 35.4557 34.2148 35.2344C33.8763 35.026 33.5964 34.7656 33.375 34.4531C33.1667 34.1406 33.0039 33.8021 32.8867 33.4375C32.7695 33.0729 32.6784 32.7344 32.6133 32.4219C32.3659 31.5104 32.0859 30.5013 31.7734 29.3945C31.4609 28.2747 31.1289 27.1029 30.7773 25.8789C30.4258 24.6549 30.0612 23.4115 29.6836 22.1484C29.306 20.8724 28.9284 19.6289 28.5508 18.418C28.1862 17.194 27.8216 16.0352 27.457 14.9414C27.1055 13.8477 26.7734 12.8581 26.4609 11.9727C25.9661 13.3529 25.5169 14.7526 25.1133 16.1719C24.7096 17.5781 24.306 18.9974 23.9023 20.4297C23.5117 21.849 23.1016 23.2747 22.6719 24.707C22.2552 26.1263 21.7865 27.5391 21.2656 28.9453C21.1615 29.2057 21.0833 29.4922 21.0312 29.8047C20.9922 30.1172 20.9727 30.3776 20.9727 30.5859C20.9727 30.9505 20.901 31.25 20.7578 31.4844C20.6146 31.7188 20.4258 31.9076 20.1914 32.0508C19.9701 32.181 19.7161 32.2786 19.4297 32.3438C19.1432 32.3958 18.8568 32.4219 18.5703 32.4219C18.0885 32.4219 17.6979 32.3568 17.3984 32.2266C17.112 32.0833 16.8776 31.8945 16.6953 31.6602C16.526 31.4258 16.3958 31.1654 16.3047 30.8789C16.2266 30.5794 16.1615 30.2734 16.1094 29.9609C16.0833 29.7786 16.0508 29.6029 16.0117 29.4336C15.9857 29.2513 15.9466 29.069 15.8945 28.8867C15.6732 28.1055 15.4258 27.2461 15.1523 26.3086C14.8919 25.3581 14.612 24.375 14.3125 23.3594C14.013 22.3307 13.7005 21.2956 13.375 20.2539C13.0625 19.1992 12.7435 18.1771 12.418 17.1875C12.1055 16.1849 11.793 15.2344 11.4805 14.3359C11.181 13.4375 10.901 12.6302 10.6406 11.9141C10.3151 12.7995 9.97656 13.8411 9.625 15.0391C9.28646 16.224 8.9349 17.487 8.57031 18.8281C8.21875 20.1562 7.86068 21.5234 7.49609 22.9297C7.14453 24.3359 6.79297 25.7096 6.44141 27.0508C6.10286 28.3789 5.77083 29.6354 5.44531 30.8203C5.11979 32.0052 4.8138 33.0339 4.52734 33.9062C4.22786 34.4141 3.92839 34.8177 3.62891 35.1172C3.34245 35.4167 2.91276 35.5664 2.33984 35.5664C2.0013 35.5664 1.6888 35.5078 1.40234 35.3906C1.12891 35.2865 0.888021 35.1367 0.679688 34.9414C0.471354 34.7461 0.308594 34.5247 0.191406 34.2773C0.0742188 34.0169 0.015625 33.7435 0.015625 33.457ZM40.7383 23.2227C40.7383 21.5299 41.0508 19.9414 41.6758 18.457C42.3138 16.9596 43.1797 15.6576 44.2734 14.5508C45.3802 13.431 46.6693 12.5521 48.1406 11.9141C49.612 11.263 51.1875 10.9375 52.8672 10.9375C54.7031 10.9375 56.3633 11.263 57.8477 11.9141C59.3451 12.5521 60.6211 13.431 61.6758 14.5508C62.7435 15.6576 63.5638 16.9596 64.1367 18.457C64.7096 19.9414 64.9961 21.5299 64.9961 23.2227C64.9961 24.4596 64.8464 25.625 64.5469 26.7188C64.2604 27.8125 63.8503 28.8151 63.3164 29.7266C62.7826 30.638 62.138 31.4583 61.3828 32.1875C60.6406 32.9036 59.8203 33.5156 58.9219 34.0234C58.0234 34.5182 57.0599 34.8958 56.0312 35.1562C55.0156 35.4297 53.9609 35.5664 52.8672 35.5664C51.2266 35.5664 49.6706 35.2734 48.1992 34.6875C46.7279 34.0885 45.4388 33.2552 44.332 32.1875C43.2253 31.1068 42.3464 29.8112 41.6953 28.3008C41.0573 26.7773 40.7383 25.0846 40.7383 23.2227ZM45.25 23.2227C45.25 24.4596 45.4258 25.5794 45.7773 26.582C46.1289 27.5846 46.6302 28.444 47.2812 29.1602C47.9453 29.8633 48.7461 30.4102 49.6836 30.8008C50.6211 31.1784 51.6758 31.3672 52.8477 31.3672C53.8893 31.3672 54.8724 31.1914 55.7969 30.8398C56.7214 30.4883 57.5286 29.974 58.2188 29.2969C58.9219 28.6068 59.4753 27.7539 59.8789 26.7383C60.2956 25.7227 60.5039 24.5508 60.5039 23.2227C60.5039 22.1289 60.3281 21.0938 59.9766 20.1172C59.638 19.1276 59.1432 18.2682 58.4922 17.5391C57.8411 16.8099 57.0404 16.2305 56.0898 15.8008C55.1393 15.3711 54.0586 15.1562 52.8477 15.1562C51.6367 15.1562 50.5625 15.3711 49.625 15.8008C48.6875 16.2305 47.8932 16.8099 47.2422 17.5391C46.5911 18.2682 46.0964 19.1276 45.7578 20.1172C45.4193 21.0938 45.25 22.1289 45.25 23.2227ZM74.7227 28.1641C74.1628 27.5521 73.5964 26.9141 73.0234 26.25C72.4635 25.5729 71.9557 24.8438 71.5 24.0625C71.0573 23.2812 70.6927 22.4284 70.4062 21.5039C70.1328 20.5794 69.9961 19.5573 69.9961 18.4375C69.9961 17.8255 70.0221 17.3047 70.0742 16.875C70.1393 16.4453 70.2109 16.0026 70.2891 15.5469H69.8789C69.6445 15.5469 69.3906 15.5078 69.1172 15.4297C68.8438 15.3385 68.5898 15.2083 68.3555 15.0391C68.1211 14.8568 67.9258 14.6289 67.7695 14.3555C67.6133 14.069 67.5352 13.724 67.5352 13.3203C67.5352 12.9688 67.5938 12.6628 67.7109 12.4023C67.8281 12.1289 67.9779 11.9076 68.1602 11.7383C68.3555 11.569 68.5768 11.4453 68.8242 11.3672C69.0716 11.276 69.3255 11.2305 69.5859 11.2305C69.625 11.2305 69.7161 11.2305 69.8594 11.2305C70.0026 11.2305 70.1654 11.237 70.3477 11.25C70.4388 11.25 70.5495 11.2565 70.6797 11.2695C70.8229 11.2695 70.9401 11.2695 71.0312 11.2695C71.5 11.2956 71.9753 11.3086 72.457 11.3086C72.9388 11.3086 73.4596 11.3021 74.0195 11.2891C74.4622 11.2891 74.8138 11.3477 75.0742 11.4648C75.3477 11.569 75.5495 11.7057 75.6797 11.875C75.8229 12.0312 75.9141 12.2135 75.9531 12.4219C75.9922 12.6302 76.0117 12.832 76.0117 13.0273C76.0117 13.3008 75.9531 13.5417 75.8359 13.75C75.7188 13.9583 75.582 14.1602 75.4258 14.3555C75.2695 14.5508 75.1068 14.7461 74.9375 14.9414C74.7812 15.1367 74.6641 15.3581 74.5859 15.6055C74.5469 15.7617 74.5013 15.9701 74.4492 16.2305C74.4102 16.4909 74.3711 16.7643 74.332 17.0508C74.306 17.3242 74.2799 17.6042 74.2539 17.8906C74.2409 18.1641 74.2344 18.4049 74.2344 18.6133C74.2344 19.3424 74.319 19.9935 74.4883 20.5664C74.6576 21.1263 74.8854 21.6471 75.1719 22.1289C75.4714 22.6107 75.8099 23.0664 76.1875 23.4961C76.5781 23.9258 76.9818 24.362 77.3984 24.8047C77.8802 25.3125 78.3685 25.8659 78.8633 26.4648C79.3581 27.0508 79.7812 27.7083 80.1328 28.4375L80.2305 28.2422C80.556 27.5651 80.9401 26.9466 81.3828 26.3867C81.8255 25.8268 82.3268 25.2669 82.8867 24.707C83.2904 24.2773 83.681 23.8542 84.0586 23.4375C84.4492 23.0208 84.7943 22.5781 85.0938 22.1094C85.3932 21.6276 85.6276 21.1068 85.7969 20.5469C85.9792 19.974 86.0703 19.3294 86.0703 18.6133C86.0703 18.0534 86.0378 17.5846 85.9727 17.207C85.9206 16.8164 85.8424 16.4844 85.7383 16.2109C85.6471 15.9375 85.543 15.7096 85.4258 15.5273C85.3086 15.3451 85.1979 15.1758 85.0938 15.0195C84.9115 14.7982 84.7552 14.5508 84.625 14.2773C84.4948 14.0039 84.4297 13.6458 84.4297 13.2031C84.4297 12.9427 84.4622 12.7018 84.5273 12.4805C84.6055 12.2461 84.7292 12.0443 84.8984 11.875C85.0807 11.7057 85.3216 11.5755 85.6211 11.4844C85.9336 11.3802 86.3242 11.3281 86.793 11.3281C87.2487 11.3281 87.7174 11.3216 88.1992 11.3086C88.681 11.2826 89.2669 11.2695 89.957 11.2695C90.1784 11.2695 90.4193 11.3086 90.6797 11.3867C90.9401 11.4648 91.1745 11.582 91.3828 11.7383C91.6042 11.8945 91.7865 12.0898 91.9297 12.3242C92.0729 12.5586 92.1445 12.8385 92.1445 13.1641C92.1445 13.737 91.9753 14.2188 91.6367 14.6094C91.3112 15 90.7253 15.2279 89.8789 15.293C89.957 15.5664 90.0221 15.8724 90.0742 16.2109C90.1393 16.5495 90.1914 16.8815 90.2305 17.207C90.2695 17.5326 90.2956 17.8385 90.3086 18.125C90.3346 18.3984 90.3477 18.6133 90.3477 18.7695C90.3477 19.6419 90.2109 20.4818 89.9375 21.2891C89.6641 22.0833 89.3125 22.8385 88.8828 23.5547C88.4531 24.2708 87.9714 24.9479 87.4375 25.5859C86.9167 26.224 86.4023 26.8164 85.8945 27.3633C85.4779 27.832 85.0612 28.3138 84.6445 28.8086C84.2409 29.2904 83.8698 29.7852 83.5312 30.293C83.2057 30.8008 82.9323 31.3216 82.7109 31.8555C82.4896 32.3763 82.3724 32.9102 82.3594 33.457C82.3333 33.9648 82.2422 34.362 82.0859 34.6484C81.9427 34.9349 81.7604 35.1432 81.5391 35.2734C81.3307 35.4167 81.1094 35.5013 80.875 35.5273C80.6406 35.5534 80.4323 35.5664 80.25 35.5664C79.9766 35.5664 79.7031 35.5208 79.4297 35.4297C79.1562 35.3385 78.9089 35.2083 78.6875 35.0391C78.4661 34.8828 78.2839 34.694 78.1406 34.4727C77.9974 34.2513 77.9258 34.0104 77.9258 33.75C77.9128 33.2422 77.8151 32.7539 77.6328 32.2852C77.4635 31.8034 77.2292 31.3346 76.9297 30.8789C76.6432 30.4232 76.3047 29.974 75.9141 29.5312C75.5365 29.0755 75.1393 28.6198 74.7227 28.1641ZM102.086 8.08594C101.773 8.22917 101.448 8.30078 101.109 8.30078C100.771 8.28776 100.458 8.21615 100.172 8.08594C99.8984 7.94271 99.6576 7.74089 99.4492 7.48047C99.2409 7.22005 99.1107 6.90755 99.0586 6.54297C99.0195 6.29557 99.026 6.01562 99.0781 5.70312C99.1432 5.3776 99.2214 5.05208 99.3125 4.72656C99.4167 4.38802 99.5078 4.0625 99.5859 3.75C99.6771 3.42448 99.7357 3.13151 99.7617 2.87109C99.8008 2.28516 99.9766 1.79688 100.289 1.40625C100.602 1.01562 101.07 0.77474 101.695 0.683594C102.151 0.605469 102.581 0.63151 102.984 0.761719C103.388 0.891927 103.688 1.17839 103.883 1.62109C103.948 1.76432 104 1.93359 104.039 2.12891C104.091 2.3112 104.13 2.47396 104.156 2.61719C104.169 2.7474 104.163 2.91016 104.137 3.10547C104.124 3.30078 104.091 3.50911 104.039 3.73047C103.987 3.9388 103.922 4.15365 103.844 4.375C103.779 4.58333 103.714 4.76562 103.648 4.92188C103.544 5.14323 103.473 5.38411 103.434 5.64453C103.408 5.89193 103.375 6.11979 103.336 6.32812C103.297 6.53646 103.258 6.72526 103.219 6.89453C103.18 7.0638 103.115 7.22005 103.023 7.36328C102.945 7.50651 102.828 7.63672 102.672 7.75391C102.529 7.87109 102.333 7.98177 102.086 8.08594ZM98.7461 33.5352C98.7461 33.2096 98.7591 32.9362 98.7852 32.7148C98.8242 32.4935 98.8568 32.2526 98.8828 31.9922C98.9219 31.7188 98.9544 31.3997 98.9805 31.0352C99.0195 30.6706 99.0391 30.1758 99.0391 29.5508C99.0391 27.2201 99.0326 24.9089 99.0195 22.6172C99.0065 20.3125 98.974 17.8776 98.9219 15.3125C98.7266 15.3255 98.5052 15.3385 98.2578 15.3516C98.0104 15.3646 97.75 15.3776 97.4766 15.3906C97.2161 15.3906 96.9622 15.3971 96.7148 15.4102C96.4674 15.4102 96.2461 15.4102 96.0508 15.4102C95.8164 15.4102 95.5755 15.3776 95.3281 15.3125C95.0938 15.2344 94.8789 15.1107 94.6836 14.9414C94.4883 14.7721 94.3255 14.5573 94.1953 14.2969C94.0651 14.0234 94 13.6914 94 13.3008C94 12.6107 94.1823 12.0898 94.5469 11.7383C94.9245 11.3737 95.3672 11.1914 95.875 11.1914C96.3698 11.1914 96.8581 11.2174 97.3398 11.2695C97.8346 11.3086 98.3164 11.3281 98.7852 11.3281C99.2669 11.3281 99.7487 11.3086 100.23 11.2695C100.712 11.2174 101.168 11.1914 101.598 11.1914C102.262 11.1914 102.737 11.3672 103.023 11.7188C103.31 12.0703 103.453 12.5586 103.453 13.1836C103.453 13.7174 103.408 14.2448 103.316 14.7656C103.225 15.2734 103.18 15.8203 103.18 16.4062C103.18 17.5781 103.173 18.7565 103.16 19.9414C103.147 21.1263 103.134 22.3307 103.121 23.5547C103.121 24.7786 103.115 26.0286 103.102 27.3047C103.102 28.5807 103.115 29.8958 103.141 31.25C103.349 31.237 103.538 31.2044 103.707 31.1523C103.876 31.1003 104.039 31.0482 104.195 30.9961C104.352 30.931 104.514 30.8789 104.684 30.8398C104.866 30.7878 105.068 30.7617 105.289 30.7617C105.628 30.7617 105.901 30.8008 106.109 30.8789C106.331 30.957 106.507 31.0677 106.637 31.2109C106.767 31.3411 106.865 31.5104 106.93 31.7188C106.995 31.9141 107.053 32.1289 107.105 32.3633C107.197 32.9753 107.047 33.4635 106.656 33.8281C106.266 34.1927 105.732 34.4792 105.055 34.6875C104.664 34.7917 104.26 34.8958 103.844 35C103.44 35.1042 103.056 35.1953 102.691 35.2734C102.327 35.3646 101.995 35.4362 101.695 35.4883C101.396 35.5404 101.161 35.5664 100.992 35.5664C100.224 35.5664 99.6576 35.3841 99.293 35.0195C98.9284 34.668 98.7461 34.1732 98.7461 33.5352ZM115.934 26.1914C116.181 27.168 116.546 27.9883 117.027 28.6523C117.522 29.3034 118.076 29.8307 118.688 30.2344C119.299 30.638 119.944 30.931 120.621 31.1133C121.311 31.2826 121.982 31.3672 122.633 31.3672C123.648 31.3672 124.553 31.2826 125.348 31.1133C126.142 30.931 126.819 30.7161 127.379 30.4688C127.952 30.2083 128.414 29.9414 128.766 29.668C129.117 29.3945 129.365 29.1536 129.508 28.9453C129.638 28.75 129.781 28.5677 129.938 28.3984C130.107 28.2161 130.283 28.0599 130.465 27.9297C130.66 27.7865 130.849 27.6758 131.031 27.5977C131.227 27.5195 131.409 27.4805 131.578 27.4805C132.229 27.4805 132.73 27.6758 133.082 28.0664C133.447 28.444 133.629 28.9583 133.629 29.6094C133.629 29.8568 133.538 30.1693 133.355 30.5469C133.173 30.9245 132.835 31.3411 132.34 31.7969C131.793 32.3047 131.181 32.7865 130.504 33.2422C129.84 33.6979 129.104 34.1016 128.297 34.4531C127.49 34.7917 126.611 35.0586 125.66 35.2539C124.723 35.4622 123.707 35.5664 122.613 35.5664C121.324 35.5664 120.146 35.3906 119.078 35.0391C118.01 34.7005 117.053 34.2383 116.207 33.6523C115.361 33.0534 114.625 32.3633 114 31.582C113.375 30.8008 112.854 29.9674 112.438 29.082C112.021 28.1966 111.708 27.2852 111.5 26.3477C111.292 25.4102 111.188 24.4987 111.188 23.6133C111.188 21.6862 111.5 19.9479 112.125 18.3984C112.75 16.8359 113.609 15.5013 114.703 14.3945C115.797 13.2878 117.092 12.4349 118.59 11.8359C120.087 11.237 121.708 10.9375 123.453 10.9375C124.703 10.9375 125.875 11.1263 126.969 11.5039C128.062 11.8685 129.033 12.3893 129.879 13.0664C130.738 13.7305 131.454 14.5312 132.027 15.4688C132.613 16.3932 133.023 17.4154 133.258 18.5352C133.518 18.7565 133.707 19.0495 133.824 19.4141C133.954 19.7656 134.02 20.1172 134.02 20.4688C134.02 21.0547 133.818 21.5365 133.414 21.9141C133.023 22.2786 132.529 22.5326 131.93 22.6758C130.615 23.0143 129.299 23.3268 127.984 23.6133C126.669 23.8997 125.348 24.1797 124.02 24.4531C122.691 24.7266 121.35 25.0065 119.996 25.293C118.655 25.5794 117.301 25.8789 115.934 26.1914ZM115.602 22.5781C117.815 22.0573 120.055 21.569 122.32 21.1133C124.586 20.6576 126.891 20.1497 129.234 19.5898C129.013 18.9909 128.714 18.4245 128.336 17.8906C127.958 17.3438 127.516 16.8685 127.008 16.4648C126.5 16.0612 125.934 15.7422 125.309 15.5078C124.697 15.2734 124.033 15.1562 123.316 15.1562C122.21 15.1562 121.201 15.3385 120.289 15.7031C119.391 16.0547 118.609 16.556 117.945 17.207C117.281 17.8451 116.747 18.6263 116.344 19.5508C115.94 20.4622 115.693 21.4714 115.602 22.5781ZM138.727 29.9414C138.727 29.6419 138.798 29.3685 138.941 29.1211C139.085 28.8737 139.26 28.6654 139.469 28.4961C139.69 28.3138 139.931 28.1771 140.191 28.0859C140.452 27.9818 140.706 27.9297 140.953 27.9297C141.253 27.9297 141.507 27.9622 141.715 28.0273C141.923 28.0924 142.105 28.1836 142.262 28.3008C142.418 28.418 142.555 28.5547 142.672 28.7109C142.789 28.8672 142.913 29.0365 143.043 29.2188C143.564 30 144.326 30.6055 145.328 31.0352C146.331 31.4518 147.639 31.6602 149.254 31.6602C149.918 31.6602 150.543 31.6016 151.129 31.4844C151.728 31.3672 152.249 31.1914 152.691 30.957C153.147 30.7227 153.505 30.4362 153.766 30.0977C154.039 29.7591 154.176 29.3685 154.176 28.9258C154.176 28.3268 154 27.819 153.648 27.4023C153.31 26.9857 152.854 26.6276 152.281 26.3281C151.721 26.0286 151.083 25.7747 150.367 25.5664C149.651 25.3581 148.915 25.1562 148.16 24.9609C147.47 24.7917 146.773 24.6094 146.07 24.4141C145.367 24.2057 144.684 23.9714 144.02 23.7109C143.355 23.4375 142.73 23.1185 142.145 22.7539C141.572 22.3763 141.07 21.9336 140.641 21.4258C140.211 20.918 139.866 20.332 139.605 19.668C139.358 18.9909 139.234 18.2161 139.234 17.3438C139.234 16.1719 139.508 15.1823 140.055 14.375C140.615 13.5547 141.331 12.8906 142.203 12.3828C143.089 11.875 144.072 11.5104 145.152 11.2891C146.233 11.0547 147.294 10.9375 148.336 10.9375C148.935 10.9375 149.482 10.9701 149.977 11.0352C150.471 11.1003 150.934 11.1849 151.363 11.2891C151.793 11.3932 152.203 11.5234 152.594 11.6797C152.984 11.8229 153.375 11.9727 153.766 12.1289C153.818 11.9336 153.896 11.7383 154 11.543C154.117 11.3346 154.254 11.1523 154.41 10.9961C154.566 10.8268 154.749 10.6901 154.957 10.5859C155.165 10.4818 155.4 10.4297 155.66 10.4297C156.298 10.4297 156.793 10.5534 157.145 10.8008C157.496 11.0482 157.672 11.4844 157.672 12.1094C157.672 12.6042 157.652 13.1185 157.613 13.6523C157.574 14.1862 157.555 14.7721 157.555 15.4102C157.62 15.5664 157.665 15.7422 157.691 15.9375C157.717 16.1198 157.73 16.2826 157.73 16.4258C157.73 16.7383 157.678 17.0052 157.574 17.2266C157.47 17.4349 157.327 17.6107 157.145 17.7539C156.962 17.8841 156.747 17.9818 156.5 18.0469C156.266 18.112 156.005 18.1445 155.719 18.1445C155.458 18.1445 155.204 18.099 154.957 18.0078C154.723 17.9167 154.508 17.7995 154.312 17.6562C154.117 17.5 153.948 17.3242 153.805 17.1289C153.661 16.9336 153.551 16.7318 153.473 16.5234C153.264 16.3542 152.997 16.1654 152.672 15.957C152.359 15.7357 151.982 15.5339 151.539 15.3516C151.109 15.1693 150.615 15.0195 150.055 14.9023C149.495 14.7721 148.876 14.707 148.199 14.707C147.535 14.707 146.917 14.7721 146.344 14.9023C145.784 15.0195 145.296 15.1953 144.879 15.4297C144.475 15.6641 144.156 15.944 143.922 16.2695C143.688 16.5951 143.57 16.9596 143.57 17.3633C143.57 17.8841 143.727 18.3333 144.039 18.7109C144.365 19.0755 144.794 19.401 145.328 19.6875C145.862 19.9609 146.48 20.2083 147.184 20.4297C147.9 20.651 148.642 20.8659 149.41 21.0742C150.465 21.3607 151.526 21.6797 152.594 22.0312C153.674 22.3828 154.645 22.8385 155.504 23.3984C156.376 23.9453 157.086 24.6419 157.633 25.4883C158.18 26.3216 158.453 27.3698 158.453 28.6328C158.453 29.6094 158.303 30.4557 158.004 31.1719C157.704 31.888 157.307 32.5065 156.812 33.0273C156.318 33.5352 155.738 33.9583 155.074 34.2969C154.423 34.6224 153.74 34.8763 153.023 35.0586C152.32 35.2539 151.604 35.3841 150.875 35.4492C150.146 35.5273 149.456 35.5664 148.805 35.5664C147.893 35.5664 147.014 35.4818 146.168 35.3125C145.322 35.1432 144.521 34.9154 143.766 34.6289C143.023 34.3424 142.34 34.0104 141.715 33.6328C141.103 33.2552 140.576 32.8581 140.133 32.4414C139.69 32.0247 139.345 31.6016 139.098 31.1719C138.85 30.7422 138.727 30.332 138.727 29.9414Z" fill="url(#paint0_linear_1_5)"/>
<defs>
<linearGradient id="paint0_linear_1_5" x1="84.9633" y1="58.8255" x2="84.9633" y2="-34.004" gradientUnits="userSpaceOnUse">
<stop stop-color="#E7E61A"/>
<stop offset="1" stop-color="#B03535"/>
</linearGradient>
</defs>
</svg>
